<svg width="25" height="22" viewBox="0 0 25 22" fill="none" xmlns="http://www.w3.org/2000/svg">
<path d="M24.8356 11.0816C24.8356 12.0518 24.0809 12.8064 23.1646 12.8064H6.61641L12.2762 18.5202C12.9769 19.167 12.9769 20.2989 12.2762 20.9458C11.9528 21.2692 11.5216 21.4309 11.0903 21.4309C10.6052 21.4309 10.174 21.2692 9.85058 20.9458L1.22612 12.3213C0.525378 11.6745 0.525378 10.5425 1.22612 9.89569L9.85058 1.27122C10.4974 0.570484 11.6294 0.570484 12.2762 1.27122C12.9769 1.91806 12.9769 3.05002 12.2762 3.69685L6.61641 9.35666H23.1646C24.0809 9.35666 24.8356 10.1652 24.8356 11.0816Z" fill="#C2EFBA"/>
</svg>
