<svg width="26" height="21" viewBox="0 0 26 21" fill="none" xmlns="http://www.w3.org/2000/svg">
<path d="M24.3505 11.8904L15.726 20.5149C15.4026 20.8383 14.9714 21 14.5401 21C14.055 21 13.6238 20.8383 13.3004 20.5149C12.5996 19.868 12.5996 18.7361 13.3004 18.0892L18.9602 12.3755H2.46588C1.49563 12.3755 0.74099 11.6209 0.74099 10.6506C0.74099 9.73429 1.49563 8.92575 2.46588 8.92575H18.9602L13.3004 3.26594C12.5996 2.61911 12.5996 1.48715 13.3004 0.840313C13.9472 0.139576 15.0792 0.139576 15.726 0.840313L24.3505 9.46478C25.0512 10.1116 25.0512 11.2436 24.3505 11.8904Z" fill="#C2EFBA"/>
</svg>
