<?xml version="1.0" encoding="UTF-8"?><svg id="Layer_1" xmlns="http://www.w3.org/2000/svg" xmlns:xlink="http://www.w3.org/1999/xlink" viewBox="0 0 2566.58 1535.44"><defs><style>.cls-1{stroke-dasharray:0 0 15.35 38.38;}.cls-1,.cls-2,.cls-3,.cls-4,.cls-5,.cls-6,.cls-7,.cls-8,.cls-9,.cls-10,.cls-11,.cls-12,.cls-13,.cls-14,.cls-15,.cls-16,.cls-17,.cls-18,.cls-19,.cls-20,.cls-21,.cls-22,.cls-23,.cls-24{stroke-width:10px;}.cls-1,.cls-2,.cls-3,.cls-4,.cls-5,.cls-6,.cls-7,.cls-9,.cls-10,.cls-11,.cls-12,.cls-13,.cls-14,.cls-15,.cls-16,.cls-17,.cls-18,.cls-19,.cls-20,.cls-21,.cls-22,.cls-23,.cls-24{stroke:#221f20;}.cls-1,.cls-3,.cls-4,.cls-5,.cls-6,.cls-7,.cls-8,.cls-9,.cls-10,.cls-11,.cls-12,.cls-13,.cls-14,.cls-15,.cls-16,.cls-17,.cls-18,.cls-19,.cls-20,.cls-21,.cls-22,.cls-23,.cls-24{stroke-linecap:round;stroke-linejoin:round;}.cls-1,.cls-3,.cls-4,.cls-5,.cls-6,.cls-7,.cls-8,.cls-9,.cls-10,.cls-11,.cls-13,.cls-15,.cls-16,.cls-17,.cls-18,.cls-19,.cls-20,.cls-21,.cls-24{fill:none;}.cls-25,.cls-12,.cls-14,.cls-23{fill:#bed0ff;}.cls-26,.cls-2,.cls-22{fill:#c2efba;}.cls-2,.cls-27{stroke-miterlimit:10;}.cls-3{stroke-dasharray:0 0 27.47 68.67;}.cls-4{stroke-dasharray:0 0 12.81 32.03;}.cls-5{stroke-dasharray:0 0 10.06 25.15;}.cls-6{stroke-dasharray:0 0 10.45 26.12;}.cls-8{stroke:#000;stroke-dasharray:0 0 0 0 0 200 30 20 50 100;}.cls-9{stroke-dasharray:0 0 22.57 56.43;}.cls-10{stroke-dasharray:0 0 1.7 4.26;}.cls-11,.cls-22{stroke-dasharray:0 0 0 0 0 100 30 20 50 100;}.cls-12,.cls-19{stroke-dasharray:0 0 0 0 150 70 20 50;}.cls-13{stroke-dasharray:0 0 5.64 14.1;}.cls-14{stroke-dasharray:0 0 0 50 30 80;}.cls-15{stroke-dasharray:0 0 15.32 38.3;}.cls-16{stroke-dasharray:0 0 0 0 82.56 38.53 11.01 27.52;}.cls-17{stroke-dasharray:0 0 11.01 27.52;}.cls-18{stroke-dasharray:0 0 .62 1.55;}.cls-20{stroke-dasharray:0 0 11.6 29;}.cls-21{stroke-dasharray:0 0 13.48 33.7;}.cls-23{stroke-dasharray:0 0 0 10 30 80;}.cls-27{fill:url(#linear-gradient);stroke:url(#linear-gradient-2);}.cls-24{stroke-dasharray:0 0 0 0 101.1 47.18 13.48 33.7;}</style><linearGradient id="linear-gradient" x1="269.21" y1="118.29" x2="2599.79" y2="1610.24" gradientTransform="matrix(1, 0, 0, 1, 0, 0)" gradientUnits="userSpaceOnUse"><stop offset="0" stop-color="#bed0ff"/><stop offset="1" stop-color="#c2efba"/></linearGradient><linearGradient id="linear-gradient-2" x1="0" y1="767.47" x2="2566.58" y2="767.47" gradientTransform="matrix(1, 0, 0, 1, 0, 0)" gradientUnits="userSpaceOnUse"><stop offset="0" stop-color="#fff"/><stop offset="1" stop-color="#000"/></linearGradient></defs><rect class="cls-27" x=".5" width="2565.58" height="1534.94"/><g><g><path class="cls-25" d="M2064.45,1550.86s210.38-160.93,45.34-96.2c0,0,184.27-177.55,55.1-156.86,0,0,87.43-137.38-35.29-117.87-122.72,19.51-58.28,118.06-58.28,118.06,0,0-132.81-49.96-29.39,153.42,0,0-156.5-30.31-9.61,96.38l32.12,3.06Z"/><g><path class="cls-7" d="M2171.23,1451.15c7.07-14.52-6.02-18.23-61.44,3.51,0,0,25.73-24.79,51.23-54.77"/><path class="cls-20" d="M2186.13,1367.99c5.35-7.5,10.16-14.9,14.1-21.95"/><path class="cls-7" d="M2206.59,1333.03c10.37-25.33,3.64-42.49-41.7-35.23,0,0,23.04-36.21,28.86-68.81"/><path class="cls-3" d="M2134.78,1179.18c-1.68,.22-3.41,.47-5.18,.75-24.15,3.84-41.05,10.74-52.62,19.34"/><path class="cls-7" d="M2057.02,1226.51c-10.55,33.48,14.3,71.48,14.3,71.48,0,0-52.1-19.6-65.62,15.72"/><path class="cls-5" d="M2003.7,1348.5c.96,6.6,2.54,13.93,4.82,22.09"/><path class="cls-7" d="M2012.21,1382.62c6.26,18.87,15.88,41.56,29.72,68.79,0,0-60.12-11.64-70.86,9.67"/><path class="cls-21" d="M1987.08,1503.14c5.41,6.61,12.22,13.98,20.64,22.2"/><path class="cls-24" d="M2019.99,1536.88c3.85,3.5,7.96,7.13,12.33,10.91l32.12,3.06s69.28-53,97.14-85.93"/></g></g><path class="cls-19" d="M2125.94,1229.28s-30.83,202.34-60.48,287.44"/></g><g><g><path class="cls-7" d="M1921.07,1182.31s19.83,83.26-77.03,364.26"/><path class="cls-22" d="M1927.5,1220.43s29.79-35.56,61.46-27.14c31.67,8.43,45.24,40.52,20.34,55.44-20.78,12.45-75.51-4.43-81.8-28.31Z"/><path class="cls-22" d="M1914.78,1329.98s37.46-27.37,66.18-11.58c28.72,15.79,34.18,50.2,6.42,58.71-23.16,7.1-72.23-22.43-72.6-47.13Z"/><path class="cls-22" d="M1881.69,1435.61s40.26-23.05,67.05-4.18c26.79,18.87,28.41,53.67-.12,59.06-23.8,4.49-69.31-30.3-66.94-54.88Z"/><path class="cls-22" d="M1918.88,1274.63s-29.23,36.02-61.03,28.08c-31.8-7.94-45.86-39.81-21.19-55.12,20.58-12.77,75.57,3.26,82.22,27.04Z"/><path class="cls-22" d="M1890.41,1388.41s-35.38,31.01-64.37,17.54c-28.99-13.47-36.1-47.85-9.29-58.91,22.37-9.23,72.04,16.38,73.66,41.37Z"/></g><path class="cls-22" d="M1919.07,1178.13s-43.9-14.99-47.43-47.58c-3.53-32.58,21.52-56.79,44.41-38.93,19.1,14.9,23.04,72.04,3.02,86.5Z"/></g><path class="cls-22" d="M1800.02,1037.52s-26.85-38.63-58.24-32.55-46.58,37.73-23.22,54.93c19.49,14.35,73.87,1.48,81.46-22.38Z"/><g><path class="cls-22" d="M1045.93,1309.36l18.29,2.13s-27.07,115.79-20.91,200.9l-17.32,8.78s-8.28-80.85,19.94-211.81Z"/><path class="cls-23" d="M1072.45,1142.84s-105.39,32.16-84.7,103.91c20.69,71.75,98.44,79.59,136.51,33.2,38.07-46.39,6.43-96.84-51.81-137.11Z"/><path class="cls-22" d="M1050.57,1322.05s-13.56-117.35-112.72-118.78c0,0-8.9,101.76,112.72,118.78Z"/><path class="cls-22" d="M1051.07,1322.11s40.15-111.1,136.99-89.71c0,0-14.71,101.08-136.99,89.71Z"/></g><path class="cls-2" d="M1044.79,1472.63v68.92s-11.06,12.76-22.97,0v-68.92h22.97Z"/><path class="cls-22" d="M1025.26,1484.84s0-55.79,50.37-62.83c50.37-7.04,75.83,16.25,88.83,12.46,13-3.79-66.62,117-139.21,50.37Z"/><g><path class="cls-22" d="M1035.43,1477.46s.83-78.11-65.51-88.67c-66.34-10.57-100.27,21.69-117.36,16.2-17.09-5.49,86.14,164.74,182.87,72.48Z"/><path class="cls-8" d="M1000.69,1469.75s-19.38-45.18-87.04-44.04"/></g><g><g><path class="cls-22" d="M2372.28,1311.71l-18.31-2s.6,118.91-24.37,200.51l14.93,12.42s26.08-76.97,27.75-210.93Z"/><path class="cls-23" d="M2383.52,1143.47s95.58,54.83,59.42,120.17c-36.16,65.34-113.69,55.66-140.48,1.95-26.78-53.71,15.3-95.83,81.05-122.12Z"/><path class="cls-22" d="M2364.93,1323.05s39.37-111.38,136.35-90.68c0,0-13.99,101.18-136.35,90.68Z"/><path class="cls-22" d="M2364.42,1323s-14.39-117.25-113.56-117.98c0,0-8.18,101.82,113.56,117.98Z"/></g><path class="cls-2" d="M2337.01,1471.13l-15.35,67.18s7.94,14.91,22.39,5.12l15.35-67.18-22.39-5.12Z"/><path class="cls-22" d="M2353.33,1487.38s12.43-54.39-35.11-72.48c-47.54-18.09-77.55-1.05-89.37-7.65-11.83-6.59,38.88,128.9,124.48,80.12Z"/><g><path class="cls-22" d="M2345.07,1477.92s16.59-76.33,83.62-71.85c67.03,4.48,92.92,43.48,110.8,41.94,17.88-1.54-120.68,141.4-194.42,29.91Z"/><path class="cls-8" d="M2380.65,1478.15s28.95-39.73,94.66-23.54"/></g></g><g><g><path class="cls-25" d="M341.52,1548.97s-153.9-220.12-33.17-131.58c0,0-134.8-242.86-40.31-214.56,0,0-63.96-187.92,25.82-161.23,89.78,26.69,42.64,161.49,42.64,161.49,0,0,97.16-68.33,21.5,209.85,0,0,114.49-41.45,7.03,131.84l-23.5,4.19Z"/><g><path class="cls-7" d="M400.27,1478.66c-7.24,17.51-18.57,39.23-35.25,66.12l-23.5,4.19s-20.73-29.65-41.01-62.82"/><path class="cls-6" d="M282.12,1454.54c-3.99-7.31-7.63-14.39-10.67-20.95"/><path class="cls-7" d="M266.35,1421.61c-10.17-26.81-4.14-38.06,42-4.22,0,0-16.44-29.61-33.81-66.96"/><path class="cls-15" d="M253.4,1301.16c-4.3-11.13-8.17-22.15-11.27-32.58"/><path class="cls-7" d="M237.34,1250.09c-7.29-34.13-2.16-57.09,30.7-47.25,0,0-11.91-34.99-18.24-72.62"/><path class="cls-17" d="M245.97,1091.91c-.11-8.91,.49-17.29,2.1-24.64"/><path class="cls-16" d="M252.57,1054.31c6.79-13.03,19.52-19.17,41.29-12.7,38.17,11.35,51.59,42.24,54.41,74.01"/><path class="cls-7" d="M348.86,1129.41c.05,38.17-12.37,73.68-12.37,73.68,0,0,42.52-29.9,49.4,30.38"/><path class="cls-1" d="M384.49,1287.08c-1.2,10.24-2.91,21.59-5.18,34.14"/><path class="cls-7" d="M375.65,1340.06c-4.37,21.16-10.17,45.32-17.66,72.88,0,0,56.8-20.57,52.83,27.83"/><path class="cls-13" d="M406.94,1460.09c-1.11,3.74-2.46,7.74-4.07,12.02"/></g></g><path class="cls-19" d="M296.54,1109.11s22.56,276.76,44.25,393.17"/></g><g><g><path class="cls-11" d="M732.05,1044.28s-96.25,91.12-68.36,511.96"/><path class="cls-22" d="M709.08,1075.99s-11.84-44.85-44.09-50.69c-32.25-5.84-58.17,17.44-41.98,41.54,13.51,20.1,70.23,28.09,86.07,9.15Z"/><path class="cls-22" d="M674.02,1180.55s-22.27-40.7-54.98-38.61c-32.71,2.08-52.28,30.9-30.77,50.41,17.94,16.27,74.92,10.4,85.75-11.79Z"/><path class="cls-22" d="M659.06,1290.23s-26.64-37.98-58.91-32.29c-32.28,5.69-48.54,36.5-25,53.5,19.63,14.18,75.61,2.04,83.92-21.21Z"/><path class="cls-22" d="M693.84,1128.71s11.15,45.03,43.3,51.37c32.16,6.33,58.43-16.54,42.62-40.88-13.2-20.31-69.78-29.18-85.92-10.48Z"/><path class="cls-22" d="M671.24,1243.8s18.84,43.11,50.81,43.24,53.02-27.96,33.45-49.37c-16.33-17.86-72.17-15.8-84.26,6.13Z"/><path class="cls-22" d="M650.05,1419.44s-22.27-40.7-54.98-38.61c-32.71,2.08-52.28,30.9-30.77,50.41,17.94,16.27,74.92,10.4,85.75-11.79Z"/><path class="cls-22" d="M656.03,1524.56s-35.31-30.08-65.13-16.48c-29.82,13.6-37.83,47.51-10.78,58.06,22.56,8.81,73.71-16.99,75.91-41.58Z"/><path class="cls-22" d="M669.13,1377.06s18.84,43.11,50.81,43.24c31.97,.13,53.02-27.96,33.45-49.37-16.33-17.86-72.17-15.8-84.26,6.13Z"/><path class="cls-22" d="M667.34,1480.31s18.84,43.11,50.81,43.24c31.97,.13,53.02-27.96,33.45-49.37-16.33-17.86-72.17-15.8-84.26,6.13Z"/></g><path class="cls-22" d="M734.69,1041.29s46.11,5.09,63.16-22.9c17.05-27.99,4.66-60.55-23.65-54.11-23.62,5.37-51.48,55.41-39.51,77.01Z"/></g><g><g><path class="cls-26" d="M1512.53,1551.72s-148.12-111.66-32.23-67.14c0,0-129.92-123.43-39.36-109.58,0,0-61.91-95.78,24.13-82.72,86.04,13.06,41.4,82.39,41.4,82.39,0,0,92.76-35.64,21.34,107.3,0,0,109.45-22,7.2,67.45l-22.48,2.3Z"/><g><path class="cls-7" d="M1451.33,1499.83c-21.28-21.52-27.57-36.97,28.96-15.26,0,0-29.27-27.81-50.35-55.55"/><path class="cls-10" d="M1426.4,1424.24c-.76-1.04-1.5-2.09-2.22-3.12"/><path class="cls-7" d="M1422.96,1419.36c-18.46-27.07-24.58-50.87,17.97-44.36,0,0-29.95-46.33-19.24-70.15"/><path class="cls-4" d="M1461.43,1291.77c1.18,.14,2.39,.31,3.63,.5,9.67,1.47,17.68,3.64,24.3,6.35"/><path class="cls-7" d="M1503.26,1306.51c31.27,24.56,3.21,68.16,3.21,68.16,0,0,53.99-20.74,47.88,32.88"/><path class="cls-18" d="M1554.07,1409.71c-.06,.46-.13,.92-.2,1.38"/><path class="cls-7" d="M1553.75,1411.86c-2.65,16.4-10.41,39.03-25.94,70.1,0,0,71.58-14.39,44.89,27.42"/><path class="cls-9" d="M1511.52,1550.95c-4.37-3.32-22.22-17.03-39.47-31.98"/></g></g><path class="cls-19" d="M1468.34,1328.13s9.13,109.79,50.66,186.66"/></g><g><g><path class="cls-25" d="M1539.88,1552.23s244.5-101.86,68.41-81.42c0,0,223.51-124.59,93.34-137.59,0,0,119.62-110.5-4.01-122.98-123.63-12.48-86.5,99.26-86.5,99.26,0,0-115.64-82.22-67.6,140.82,0,0-143.57-69.27-33.91,90.73l30.28,11.17Z"/><g><path class="cls-7" d="M1668.59,1483.11c10.54-12.23-1.16-19.16-60.3-12.3,0,0,31.21-17.4,63.52-39.87"/><path class="cls-20" d="M1704.24,1406.51c7.08-5.88,13.63-11.81,19.23-17.62"/><path class="cls-7" d="M1732.95,1377.93c16.49-21.84,14.37-40.15-31.32-44.71,0,0,31.53-29.12,45.48-59.15"/><path class="cls-3" d="M1702.82,1210.84c-1.68-.22-3.42-.42-5.2-.6-24.33-2.46-42.43-.1-55.81,5.26"/><path class="cls-7" d="M1615.55,1236.74c-18.75,29.67-4.43,72.76-4.43,72.76,0,0-45.36-32.25-67.46-1.56"/><path class="cls-5" d="M1532.84,1341.07c-.75,6.62-1.11,14.12-.98,22.59"/><path class="cls-7" d="M1532.35,1376.23c1.23,19.85,4.73,44.24,11.16,74.1,0,0-55.15-26.61-70.98-8.75"/><path class="cls-21" d="M1477.27,1486.33c3.55,7.77,8.25,16.64,14.29,26.74"/><path class="cls-24" d="M1500.47,1527.37c2.83,4.37,5.87,8.93,9.14,13.7l30.28,11.17s80.52-33.54,115.87-58.27"/></g></g><path class="cls-19" d="M1681.47,1257.03s-81.49,187.75-131.9,262.46"/></g><path class="cls-23" d="M1318.41,1534.94s-127.23-523.9-35.12-543.86,35.12,543.86,35.12,543.86Z"/><path class="cls-14" d="M1308.8,1535.44s-23.23-437.35,71-438.74c94.24-1.39-71,438.74-71,438.74Z"/><path class="cls-14" d="M1312.18,1532.09s-201.67-405.97-113.4-432.82c88.26-26.85,113.4,432.82,113.4,432.82Z"/><path class="cls-22" d="M70.95,1581.3s-127.23-523.9-35.12-543.86,35.12,543.86,35.12,543.86Z"/><path class="cls-22" d="M61.35,1581.8s-23.23-437.35,71-438.74c94.24-1.39-71,438.74-71,438.74Z"/><path class="cls-22" d="M64.73,1578.45s-201.67-405.97-113.4-432.82c88.26-26.85,113.4,432.82,113.4,432.82Z"/><path class="cls-22" d="M160.4,1555.23s-34.53-67.25,0-67.25c0,0,9.48-62.63,58.02-25.05,0,0,59.5-17.38,42.28,31.32,0,0,45.79,30.71-27.26,45.85"/><path class="cls-22" d="M801.13,1557.07s-34.53-67.25,0-67.25c0,0,9.48-62.63,58.02-25.05,0,0,59.5-17.38,42.28,31.32,0,0,45.79,30.71-27.26,45.85"/><path class="cls-22" d="M2517.02,1562.08s-34.53-67.25,0-67.25c0,0,9.48-62.63,58.02-25.05,0,0,59.5-17.38,42.28,31.32,0,0,45.79,30.71-27.26,45.85"/><path class="cls-12" d="M515.36,1583.84s23.53-117.02,0-117.02c0,0-6.46-108.99-39.53-43.6,0,0-40.54-30.25-28.8,54.5,0,0-31.19,53.44,18.57,79.78"/></svg>