<svg width="46" height="46" viewBox="0 0 46 46" fill="none" xmlns="http://www.w3.org/2000/svg">
<circle cx="22.5483" cy="23.4569" r="22.5386" fill="url(#paint0_linear_14_192)"/>
<path d="M16.4908 19.4422C18.5031 17.4298 21.8092 17.4298 23.8216 19.4422C25.6183 21.2389 25.8699 24.0778 24.3965 26.1621L24.3606 26.198C24.0012 26.737 23.2825 26.8448 22.7435 26.4855C22.2404 26.0902 22.0967 25.3715 22.4919 24.8684L22.5279 24.8325C23.3544 23.6466 23.2107 22.1014 22.2045 21.0952C21.0905 19.9453 19.2578 19.9453 18.1078 21.0952L14.0831 25.12C12.9332 26.234 12.9332 28.0666 14.0831 29.2166C15.0893 30.2228 16.6704 30.3306 17.8204 29.54L17.8563 29.4681C18.3953 29.1088 19.114 29.2166 19.4734 29.7556C19.8327 30.2587 19.7249 30.9774 19.2218 31.3727L19.15 31.4086C17.0657 32.882 14.2628 32.6304 12.466 30.8337C10.4177 28.8213 10.4177 25.5152 12.466 23.5029L16.4908 19.4422ZM27.0917 28.3541C25.0793 30.4024 21.7732 30.4024 19.7609 28.3541C17.9641 26.5574 17.7126 23.7544 19.1859 21.6702L19.2218 21.6342C19.5812 21.0952 20.2999 20.9874 20.8389 21.3468C21.342 21.7061 21.4858 22.4248 21.0905 22.9638L21.0545 22.9998C20.228 24.1497 20.3718 25.7309 21.378 26.737C22.4919 27.887 24.3246 27.887 25.4746 26.737L29.4993 22.7123C30.6493 21.5624 30.6493 19.7297 29.4993 18.6157C28.4931 17.6095 26.912 17.4657 25.7621 18.2923L25.7261 18.3282C25.1871 18.7235 24.4684 18.5797 24.109 18.0766C23.7497 17.5735 23.8575 16.8548 24.3606 16.4596L24.4325 16.4236C26.5167 14.9503 29.3196 15.2018 31.1164 16.9986C33.1647 19.011 33.1647 22.317 31.1164 24.3294L27.0917 28.3541Z" fill="white"/>
<defs>
<linearGradient id="paint0_linear_14_192" x1="-48.5209" y1="-1377.09" x2="117.626" y2="-1374.77" gradientUnits="userSpaceOnUse">
<stop stop-color="#C2EFBA"/>
<stop offset="1" stop-color="#BED0FF"/>
</linearGradient>
</defs>
</svg>
