<?xml version="1.0" encoding="UTF-8"?><svg id="Layer_1" xmlns="http://www.w3.org/2000/svg" viewBox="0 0 458.69 504.96"><defs><style>.cls-1{fill:none;}.cls-1,.cls-2{stroke-width:10px;}.cls-1,.cls-2,.cls-3{stroke:#fff;stroke-dasharray:0 0 0 0 0 200 30 20 50 100;stroke-linecap:round;}.cls-1,.cls-3{stroke-linejoin:round;}.cls-2{stroke-miterlimit:10;}.cls-2,.cls-3{fill:#fff;}.cls-3{stroke-width:20px;}</style></defs><path d="M443.79,353.29c0,85.99-95.52,134.72-213.36,134.72S17.07,439.27,17.07,353.29,149.13,204.67,173.78,172.92c23.4-30.15,79.86-38.53,113.53-.71,44.55,50.05,156.49,95.09,156.49,181.07Z"/><rect class="cls-2" x="154.13" y="332.34" width="25.14" height="59.15" rx="10.72" ry="10.72"/><rect class="cls-2" x="280.23" y="334.42" width="25.14" height="59.15" rx="10.72" ry="10.72"/><line class="cls-3" x1="298.15" y1="243.42" x2="304.6" y2="249.07"/><path class="cls-3" d="M339.08,275.65s41.51,31.93,43.11,72.25"/><g><path d="M244.21,107.28v68.92s-11.06,12.76-22.97,0V107.28h22.97Z"/><path d="M224.68,119.48s0-55.79,50.37-62.83c50.37-7.04,75.83,16.25,88.83,12.46,13-3.79-66.62,117-139.21,50.37Z"/><g><path d="M234.84,112.11s.83-78.11-65.51-88.67c-66.34-10.57-100.27,21.69-117.36,16.2-17.09-5.49,86.14,164.74,182.87,72.48Z"/><path d="M200.11,104.4s-19.38-45.18-87.04-44.04"/></g><path class="cls-1" d="M265.29,103.71s18.44-10.15,32.06-12.81"/></g><path class="cls-2" d="M217.7,403.32s3.19,9.79,11.88,9.79,11.48-9.79,11.48-9.79"/></svg>